PathFileType	4	(X/Y/Z)	subject01_walk1.trc
DataRate	CameraRate	NumFrames	NumMarkers	Units	OrigDataRate	OrigDataStartFrame	OrigNumFrames
60.00	60.00	       5	41	mm	60.00	113	       900
Frame#	Time	R.ASIS			L.ASIS			V.Sacral			R.Thigh.Upper			R.Thigh.Front			R.Thigh.Rear			L.Thigh.Upper			L.Thigh.Front			L.Thigh.Rear			R.Shank.Upper			R.Shank.Front			R.Shank.Rear			L.Shank.Upper			L.Shank.Front			L.Shank.Rear			R.Heel			R.Midfoot.Sup			R.Midfoot.Lat			R.Toe.Tip			L.Heel			L.Midfoot.Sup			L.Midfoot.Lat			L.Toe.Tip			Sternum			R.Acromium			L.Acromium			R.Bicep			L.Bicep			R.Elbow			L.Elbow			R.Wrist.Med			R.Wrist.Lat			L.Wrist.Med			L.Wrist.Lat			R.Toe.Lat			R.Toe.Med			L.Toe.Lat			L.Toe.Med			R.Temple			L.Temple			Top.Head			
		X1	Y1	Z1	X2	Y2	Z2	X3	Y3	Z3	X4	Y4	Z4	X5	Y5	Z5	X6	Y6	Z6	X7	Y7	Z7	X8	Y8	Z8	X9	Y9	Z9	X10	Y10	Z10	X11	Y11	Z11	X12	Y12	Z12	X13	Y13	Z13	X14	Y14	Z14	X15	Y15	Z15	X16	Y16	Z16	X17	Y17	Z17	X18	Y18	Z18	X19	Y19	Z19	X20	Y20	Z20	X21	Y21	Z21	X22	Y22	Z22	X23	Y23	Z23	X24	Y24	Z24	X25	Y25	Z25	X26	Y26	Z26	X27	Y27	Z27	X28	Y28	Z28	X29	Y29	Z29	X30	Y30	Z30	X31	Y31	Z31	X32	Y32	Z32	X33	Y33	Z33	X34	Y34	Z34	X35	Y35	Z35	X36	Y36	Z36	X37	Y37	Z37	X38	Y38	Z38	X39	Y39	Z39	X40	Y40	Z40	X41	Y41	Z41	

113	1.867000	601.184270	1044.718990	126.523190	602.619870	1030.588620	-134.347260	405.108430	1037.541990	12.244920	656.993350	739.587040	177.010380	726.633480	699.495000	77.161800	695.233520	623.980470	171.568570	468.194150	749.320560	-177.906630	550.945190	687.869870	-121.911500	435.017730	645.890930	-158.753160	699.734560	445.181400	161.957980	785.231630	440.116390	111.402120	745.075380	371.115780	171.864350	344.657260	443.972600	-150.459990	374.369450	381.565700	-98.167930	309.005830	411.602750	-155.684480	796.976870	56.986040	94.009610	926.182430	121.523290	67.209030	922.854860	100.358570	173.063580	1066.022090	152.808460	113.504730	126.497040	104.792620	-52.405320	295.249730	81.345420	-23.999270	276.239620	66.700250	-118.135230	396.542450	44.375340	-46.770290	631.309020	1345.847530	1.466560	514.386290	1432.029170	202.485520	581.214480	1460.990360	-208.939010	490.989990	1235.106080	245.618880	626.253780	1228.355960	-236.681170	430.544460	1139.172490	266.393250	600.186220	1123.802980	-281.142360	549.409480	896.563600	275.176210	501.327090	885.443180	319.334840	782.674870	974.228700	-188.370190	758.909550	937.085880	-249.596080	1011.051820	109.915600	189.922900	1018.706360	128.448390	81.001170	331.958650	37.384960	-124.714600	352.021000	47.365880	-24.094120	684.241700	1587.601070	89.938020	700.804140	1596.272090	-47.590470	654.146240	1762.198360	30.029870	
114	1.883000	605.463620	1043.409420	128.033980	604.875490	1029.390630	-133.102770	408.279690	1035.891110	15.220230	663.094060	739.175350	177.089110	735.148740	702.120420	77.991640	703.050660	624.658450	170.360460	469.087490	748.882690	-177.128360	551.187620	686.478580	-121.369380	435.836330	645.811220	-158.325200	703.906190	445.304840	159.527560	791.213500	437.429660	107.652260	745.832150	368.366610	168.978420	341.505890	445.695040	-150.942600	369.880340	381.263180	-99.330470	305.605410	413.872160	-156.253300	783.670780	58.019300	91.669580	916.409000	112.628020	64.139410	911.776920	92.881680	169.932100	1057.621580	135.020780	109.323910	111.929580	113.093920	-53.784700	279.155090	82.839870	-25.147530	259.807710	67.265840	-119.500590	376.838010	43.981560	-46.924420	634.333440	1345.822020	4.671970	514.726990	1430.114500	206.816910	582.543460	1460.904300	-205.119080	493.723330	1232.737550	248.565810	626.807250	1227.808840	-234.076950	433.477840	1136.055540	268.790410	597.733700	1124.225830	-278.041320	553.186950	894.178100	277.403810	505.632390	882.774290	320.150120	777.943360	968.105040	-188.332290	752.505430	932.253420	-249.664790	999.934570	96.465260	186.519710	1008.211240	112.452190	77.866900	312.672180	36.905430	-124.694890	334.400240	46.597680	-24.339040	683.369200	1587.457520	94.192020	700.824340	1595.913330	-43.108870	652.659120	1762.271730	34.207270	
115	1.900000	610.035160	1042.573240	129.643400	607.802060	1028.724980	-130.715590	412.041690	1034.990360	18.415480	669.168400	740.619690	178.345500	742.269710	704.173280	80.308410	707.790710	624.138120	169.413510	471.537080	748.532650	-176.046040	553.886350	685.666320	-120.748950	438.114720	645.137210	-157.487120	709.480650	446.073120	157.898540	792.595030	434.634460	105.646020	747.858760	368.696590	165.998210	341.202300	447.382900	-151.016530	366.513890	380.440190	-100.624780	304.463470	416.263980	-156.821000	769.020200	59.637940	90.261210	904.560790	103.874230	61.808570	899.117070	85.708900	167.552990	1047.263180	117.381400	105.997770	99.004330	123.335660	-55.324010	264.058560	84.803720	-26.071310	244.745040	68.463190	-121.179120	357.317290	43.717350	-46.888480	635.828860	1345.731080	8.384970	517.087520	1428.335450	211.605740	583.385440	1461.823240	-200.792430	495.758670	1230.269290	252.052800	624.817140	1228.252560	-230.313840	437.083590	1133.562620	271.443210	597.567080	1125.285520	-274.601840	558.834230	892.376710	279.349030	510.447020	880.629520	322.222260	772.433530	960.945310	-188.352400	745.408020	927.113590	-251.047710	989.346190	82.772990	183.890140	995.907290	96.995480	75.465870	293.279450	36.371800	-124.438660	317.032290	45.640810	-24.289380	683.208560	1587.866330	98.553250	700.046200	1596.536130	-39.517950	651.495180	1762.113890	37.426840	
116	1.917000	614.109190	1043.691160	131.514950	610.234680	1029.254270	-128.876790	416.044740	1034.901250	21.625540	673.109560	740.785400	180.360600	749.025150	707.489140	82.063260	711.745000	625.103700	169.462130	475.783360	748.125610	-174.746000	558.198430	684.754940	-120.865460	442.387730	644.550420	-156.837650	714.330750	448.268400	157.690230	798.395390	434.544340	103.106080	750.018860	369.452180	165.613300	343.656160	448.158200	-152.121200	365.724820	380.103970	-101.052680	306.239500	418.655880	-157.628460	753.647460	61.591050	89.845920	891.250730	96.267660	60.288790	885.386960	79.536970	166.137150	1035.271970	101.565650	103.733020	88.248690	135.881030	-57.146620	250.118060	87.506360	-26.950280	230.743530	70.352720	-122.702550	338.454440	43.574990	-46.610610	638.799070	1346.793820	12.918890	518.583800	1427.625120	216.264190	584.282650	1462.695430	-195.543490	499.541810	1228.506590	255.580700	626.478940	1229.452510	-226.177050	441.449160	1131.680660	274.369780	595.520810	1126.219120	-270.240200	564.429870	892.094790	281.618320	515.039060	878.838500	324.180880	765.333250	953.913510	-190.034000	736.771180	923.046880	-252.840440	974.805730	71.625940	182.686230	982.240110	83.686260	73.796510	274.240390	36.025120	-123.964060	300.069400	44.813770	-23.993220	686.036990	1589.604860	102.780300	701.417300	1598.133790	-35.264480	651.551270	1763.638180	42.670040	
117	1.933000	618.854060	1045.244510	133.424320	614.798520	1030.283690	-127.172840	420.037020	1035.445070	24.690920	679.925960	742.997560	181.346760	754.728520	709.422490	82.988530	717.665410	627.106080	168.462710	481.982790	747.426640	-173.469910	564.894170	685.385130	-121.378910	449.437070	643.273620	-156.008330	717.615600	452.196040	159.482830	799.470150	433.911070	103.211620	751.888850	371.550200	166.688580	349.997130	448.597440	-152.042340	370.006810	379.386660	-102.717840	311.540860	420.913360	-158.899310	737.608760	63.633340	90.243670	876.840640	90.295550	59.510120	870.697750	74.623200	165.689960	1021.760010	88.155210	102.500160	80.409500	151.097150	-59.193440	237.542280	91.230630	-27.918640	217.487690	73.330430	-123.741620	320.699710	43.402810	-46.114850	640.713680	1348.330570	16.350090	521.608890	1427.445070	221.313000	584.964660	1465.125610	-191.565610	503.688540	1227.904540	259.411830	626.336300	1230.590330	-222.327130	446.593110	1130.366940	277.516110	594.857910	1128.506100	-266.615940	570.094600	889.964900	283.194180	521.404170	877.588200	325.304990	757.257810	947.820500	-191.402450	727.223270	919.372190	-254.476430	958.015010	63.022320	183.187650	967.389530	73.015290	72.708560	256.110230	36.258250	-123.436760	283.697240	44.574380	-23.641530	686.871890	1591.796630	106.960890	701.272640	1600.919680	-31.277310	650.459230	1765.534550	46.971480	
